<?xml version="1.0" encoding="UTF-8"?>
<svg id="Camada_1" data-name="Camada 1" xmlns="http://www.w3.org/2000/svg" viewBox="0 0 5005.59 2200.55">
  <defs>
    <style>
      .cls-1 {
        fill: #fff;
        stroke-width: 0px;
      }
    </style>
  </defs>
  <path class="cls-1" d="M117.94,466.52c0-122.18,97.41-221.25,217.11-221.25,59.43,0,114.75,23.94,155.19,66.87,5.79,5.78,5.79,12.38,0,18.16-5.78,5.78-12.38,5.78-18.16,0-36.32-38.8-84.2-58.61-137.03-58.61-105.67,0-190.7,86.68-190.7,194.83s85.03,195.65,190.7,195.65c52.83,0,100.72-19.81,137.03-58.61,5.78-5.78,12.38-5.78,18.16,0,5.79,5.78,5.79,12.38,0,18.16-40.44,42.93-95.76,66.87-155.19,66.87-119.71,0-217.11-99.89-217.11-222.07Z"/>
  <path class="cls-1" d="M555.5,466.52c0-122.18,97.41-221.25,217.1-221.25s217.95,99.07,217.95,221.25-96.58,222.07-217.95,222.07-217.1-99.89-217.1-222.07ZM581.91,466.52c0,108.15,85.02,195.65,190.69,195.65s191.52-87.5,191.52-195.65-86.67-194.83-191.52-194.83-190.69,86.68-190.69,194.83Z"/>
  <path class="cls-1" d="M1365.37,679.51l-282.33-377.27v369.01c0,9.09-4.12,13.21-13.22,13.21s-13.2-4.13-13.2-13.21v-408.64c0-6.61,3.3-10.73,9.07-12.38,5.79-1.65,10.74,0,14.86,4.13l282.33,377.27v-369.01c0-9.09,4.13-13.21,13.22-13.21s13.2,4.13,13.2,13.21v408.64c0,6.61-3.29,10.73-9.07,12.38-.83.83-1.64.83-4.12.83-4.13,0-7.43-1.65-10.74-4.95Z"/>
  <path class="cls-1" d="M1713.76,658.04c6.6,0,13.22,5.78,13.22,13.21s-6.62,13.21-13.22,13.21h-238.58c-9.07,0-13.21-4.13-13.21-13.21v-408.64c0-9.09,4.13-13.21,13.21-13.21h238.58c6.6,0,13.22,5.78,13.22,13.21s-6.62,13.21-13.22,13.21h-225.37v178.32h184.92c7.43,0,13.21,5.78,13.21,12.38,0,9.08-4.12,13.21-13.21,13.21h-184.92v178.32h225.37Z"/>
  <path class="cls-1" d="M2162.05,663c4.13,5.78,4.13,14.03-1.65,18.16-2.48,2.48-4.95,3.3-9.07,3.3s-7.43-1.65-9.91-4.95l-160.16-192.35-160.16,192.35c-2.48,3.3-5.78,4.95-9.91,4.95-3.3,0-5.78-.83-8.25-3.3-5.78-4.13-7.42-12.38-1.65-18.16l162.64-195.66-162.64-196.48c-5.76-5.78-4.12-14.03,1.65-18.16,5.78-5.78,12.38-4.13,18.16,1.65l160.16,192.35,160.16-192.35c5.78-5.78,13.21-7.43,18.98-1.65,5.79,4.13,5.79,12.38,1.65,18.16l-163.46,196.48,163.46,195.66Z"/>
  <path class="cls-1" d="M2526.96,398.82v272.43c0,9.09-4.12,13.21-13.21,13.21s-13.21-4.13-13.21-13.21v-123h-214.65c-9.07,0-13.21-4.13-13.21-13.21s4.13-13.21,13.21-13.21h214.65v-123.01c0-67.7-55.32-123.01-123.01-123.01s-123.01,55.31-123.01,123.01v272.43c0,9.09-4.12,13.21-13.22,13.21s-13.2-4.13-13.2-13.21v-272.43c0-82.56,66.86-149.42,149.42-149.42s149.42,66.87,149.42,149.42Z"/>
  <path class="cls-1" d="M2593.03,466.52c0-122.18,97.42-221.25,217.11-221.25s217.94,99.07,217.94,221.25-96.57,222.07-217.94,222.07-217.11-99.89-217.11-222.07ZM2619.45,466.52c0,108.15,85.02,195.65,190.69,195.65s191.52-87.5,191.52-195.65-86.68-194.83-191.52-194.83-190.69,86.68-190.69,194.83Z"/>
  <path class="cls-1" d="M374.67,1328.84c6.61,0,13.22,5.78,13.22,13.21s-6.61,13.21-13.22,13.21h-238.58c-9.07,0-13.2-4.13-13.2-13.21v-408.64c0-9.09,4.12-13.21,13.2-13.21h238.58c6.61,0,13.22,5.78,13.22,13.21s-6.61,13.21-13.22,13.21h-225.37v178.32h184.93c7.43,0,13.2,5.78,13.2,12.38,0,9.08-4.12,13.21-13.2,13.21h-184.93v178.32h225.37Z"/>
  <path class="cls-1" d="M491.1,1351.95c-6.6-.82-12.38-7.43-9.91-14.86.83-8.26,5.79-11.56,14.86-10.73,23.11,4.13,47.06-.83,66.04-14.86,20.65-14.03,33.02-33.02,37.15-57.79,10.73-66.04-30.54-90.81-80.9-120.53-44.58-26.42-95.76-54.48-84.21-123.83,5.79-34.68,22.29-59.44,47.89-73.47,23.1-13.21,51.18-17.34,84.2-12.38,6.61,2.48,11.56,8.25,10.73,15.68-2.48,6.6-8.25,11.56-15.68,10.73-25.59-4.95-47.88-2.48-66.05,8.25-18.98,10.73-30.53,28.89-35.49,55.31-8.26,47.06,22.29,69.34,71.82,97.42,25.59,15.68,51.19,29.72,70.17,52.01,22.29,25.59,29.72,57.79,23.11,95.76-5.78,30.55-21.47,56.96-47.05,74.3-20.65,14.03-42.11,21.46-66.05,21.46-6.61,0-13.21-.82-20.64-2.48Z"/>
  <path class="cls-1" d="M915.45,920.2c9.07,0,13.21,4.13,13.21,13.21s-4.13,13.21-13.21,13.21h-123.01v395.44c0,9.08-4.12,13.21-13.22,13.21s-13.2-4.13-13.2-13.21v-395.44h-123.01c-9.09,0-13.22-4.13-13.22-13.21s4.13-13.21,13.22-13.21h272.43Z"/>
  <path class="cls-1" d="M1256.41,1334.62c5.78,5.78,3.31,12.38-2.48,18.16-2.48,1.65-4.95,2.48-7.43,2.48-4.95,0-8.26-1.65-10.73-4.95l-98.25-131.26h-85.02c-9.07,0-13.22-4.13-13.22-13.21s4.14-13.21,13.22-13.21h91.64c67.68,0,123-54.49,123-123.01s-55.31-123.01-123-123.01h-123.01v395.44c0,9.08-4.13,13.21-13.22,13.21s-13.21-4.13-13.21-13.21v-408.64c0-9.09,4.13-13.21,13.21-13.21h136.22c82.55,0,149.42,66.87,149.42,149.42,0,74.3-54.49,136.21-124.66,146.95l87.51,118.05Z"/>
  <path class="cls-1" d="M1656.81,1069.62v272.43c0,9.08-4.13,13.21-13.21,13.21s-13.22-4.13-13.22-13.21v-123.01h-214.63c-9.09,0-13.22-4.13-13.22-13.21s4.13-13.21,13.22-13.21h214.63v-123.01c0-67.7-55.3-123.01-123-123.01s-123.01,55.31-123.01,123.01v272.43c0,9.08-4.13,13.21-13.21,13.21s-13.22-4.13-13.22-13.21v-272.43c0-82.56,66.87-149.42,149.43-149.42s149.42,66.87,149.42,149.42Z"/>
  <path class="cls-1" d="M1973.85,920.2c9.07,0,13.21,4.13,13.21,13.21s-4.13,13.21-13.21,13.21h-123.01v395.44c0,9.08-4.12,13.21-13.22,13.21s-13.2-4.13-13.2-13.21v-395.44h-123.01c-9.09,0-13.22-4.13-13.22-13.21s4.13-13.21,13.22-13.21h272.43Z"/>
  <path class="cls-1" d="M2303.26,1342.05c0,7.43-6.61,13.21-13.22,13.21h-238.58c-9.07,0-13.21-4.13-13.21-13.21v-408.64c0-9.09,4.13-13.21,13.21-13.21h238.58c6.61,0,13.22,5.78,13.22,13.21s-6.61,13.21-13.22,13.21h-225.37v178.32h184.92c9.09,0,13.21,4.13,13.21,13.21,0,6.61-5.78,12.38-13.21,12.38h-184.92v178.32h225.37c6.61,0,13.22,5.78,13.22,13.21ZM2156.31,897.09c-5.78-4.13-6.61-12.38-2.48-18.16l42.11-54.48c4.13-5.78,12.37-6.6,18.16-2.48,5.79,5.78,6.6,13.21,2.48,18.99l-42.11,53.66c-1.64,2.48-4.12,4.13-6.6,4.95-4.13.82-8.26,0-11.56-2.48Z"/>
  <path class="cls-1" d="M2337.96,1137.32c0-122.18,97.41-221.25,217.11-221.25,53.66,0,104.85,19.81,144.46,55.31,5.78,5.78,6.61,13.21.82,18.99-5.78,5.78-13.2,6.6-18.98.83-35.5-32.2-79.26-48.71-126.31-48.71-105.67,0-190.7,86.68-190.7,194.83s85.03,195.65,190.7,195.65c50.36,0,97.42-18.99,132.9-54.48v-127.96h-133.73c-9.09,0-13.22-4.13-13.22-13.21,0-6.6,5.79-12.38,13.22-12.38h146.94c7.43,0,13.21,5.78,13.21,12.38v146.12c0,3.3-1.65,6.6-4.13,9.08-40.44,42.93-95.76,66.87-155.19,66.87-119.71,0-217.11-99.89-217.11-222.07Z"/>
  <path class="cls-1" d="M2788.71,1342.05v-408.64c0-9.09,4.13-13.21,13.22-13.21s13.21,4.13,13.21,13.21v408.64c0,9.08-4.13,13.21-13.21,13.21s-13.22-4.13-13.22-13.21Z"/>
  <path class="cls-1" d="M3188.28,1069.62v272.43c0,9.08-4.13,13.21-13.22,13.21s-13.21-4.13-13.21-13.21v-123.01h-214.64c-9.07,0-13.22-4.13-13.22-13.21s4.14-13.21,13.22-13.21h214.64v-123.01c0-67.7-55.31-123.01-123-123.01s-123.01,55.31-123.01,123.01v272.43c0,9.08-4.13,13.21-13.22,13.21s-13.21-4.13-13.21-13.21v-272.43c0-82.56,66.86-149.42,149.43-149.42s149.42,66.87,149.42,149.42Z"/>
  <path class="cls-1" d="M407.21,2026.05c-12.23-12.23-23.82-24.47-40.56-42.5-37.34,34.77-79.2,49.58-126.84,49.58-84.36,0-133.3-56.66-133.3-121.69,0-59.24,35.42-99.8,85-126.84v-1.93c-22.54-28.33-36.06-59.88-36.06-90.79,0-52.8,38-106.89,110.11-106.89,54.08,0,95.93,36.06,95.93,92.07,0,45.72-26.39,81.78-95.29,115.9v1.93c36.7,42.5,77.91,90.14,105.61,121.05,19.95-30.26,33.48-72.12,41.85-126.84h51.51c-11.59,68.25-30.27,122.34-62.46,160.33,23.19,24.46,45.71,48.93,71.47,76.62h-66.97ZM338.97,1951.36c-25.76-28.33-74.05-81.13-122.34-136.51-23.18,14.81-56.02,42.5-56.02,88.21,0,49.58,36.7,87.57,88.85,87.57,37.34,0,68.9-16.75,89.51-39.28ZM206.98,1686.73c0,30.91,14.16,54.73,32.84,77.91,43.77-25.11,72.1-48.29,72.1-84.99,0-26.4-14.81-56.02-50.22-56.02s-54.72,29.62-54.72,63.1Z"/>
  <path class="cls-1" d="M947.84,1740.42v272.43c0,9.08-4.12,13.21-13.2,13.21s-13.22-4.13-13.22-13.21v-123.01h-214.64c-9.09,0-13.21-4.13-13.21-13.21s4.12-13.21,13.21-13.21h214.64v-123.01c0-67.7-55.31-123.01-123.01-123.01s-123.01,55.31-123.01,123.01v272.43c0,9.08-4.12,13.21-13.21,13.21s-13.21-4.13-13.21-13.21v-272.43c0-82.56,66.87-149.42,149.42-149.42s149.42,66.87,149.42,149.42Z"/>
  <path class="cls-1" d="M1018.87,1876.63v-272.43c0-9.09,4.12-13.21,13.2-13.21s13.22,4.13,13.22,13.21v272.43c0,68.52,54.49,123.01,123.01,123.01s123.01-54.48,123.01-123.01v-272.43c0-9.09,4.12-13.21,13.21-13.21s13.21,4.13,13.21,13.21v272.43c0,82.56-66.87,149.42-149.42,149.42s-149.42-66.87-149.42-149.42Z"/>
  <path class="cls-1" d="M1654.55,1590.99c9.07,0,13.2,4.13,13.2,13.21s-4.12,13.21-13.2,13.21h-123.01v395.44c0,9.08-4.13,13.21-13.22,13.21s-13.21-4.13-13.21-13.21v-395.44h-123.01c-9.09,0-13.21-4.13-13.21-13.21s4.12-13.21,13.21-13.21h272.44Z"/>
  <path class="cls-1" d="M1971.57,1999.63c6.61,0,13.21,5.78,13.21,13.21s-6.6,13.21-13.21,13.21h-238.58c-9.09,0-13.21-4.13-13.21-13.21v-408.64c0-9.09,4.12-13.21,13.21-13.21h238.58c6.61,0,13.21,5.78,13.21,13.21s-6.6,13.21-13.21,13.21h-225.38v178.32h184.93c7.43,0,13.21,5.78,13.21,12.38,0,9.08-4.13,13.21-13.21,13.21h-184.93v178.32h225.38Z"/>
  <path class="cls-1" d="M2366.2,2021.1l-282.33-377.27v369.02c0,9.08-4.13,13.21-13.22,13.21s-13.21-4.13-13.21-13.21v-408.64c0-6.61,3.3-10.73,9.09-12.38,5.78-1.65,10.73,0,14.86,4.13l282.33,377.27v-369.01c0-9.09,4.12-13.21,13.21-13.21s13.21,4.13,13.21,13.21v408.64c0,6.6-3.3,10.73-9.07,12.38-.83.83-1.65.83-4.13.83-4.13,0-7.43-1.65-10.73-4.95Z"/>
  <path class="cls-1" d="M2735.23,1590.99c9.09,0,13.21,4.13,13.21,13.21s-4.12,13.21-13.21,13.21h-123.01v395.44c0,9.08-4.13,13.21-13.21,13.21s-13.22-4.13-13.22-13.21v-395.44h-123.01c-9.07,0-13.2-4.13-13.2-13.21s4.12-13.21,13.2-13.21h272.44Z"/>
  <path class="cls-1" d="M2802.12,2012.85v-408.64c0-9.09,4.12-13.21,13.22-13.21s13.2,4.13,13.2,13.21v408.64c0,9.08-4.12,13.21-13.2,13.21s-13.22-4.13-13.22-13.21Z"/>
  <path class="cls-1" d="M2897.88,1808.11c0-122.18,97.42-221.25,217.12-221.25,59.44,0,114.74,23.94,155.2,66.87,5.78,5.78,5.78,12.38,0,18.16-5.79,5.78-12.38,5.78-18.17,0-36.32-38.8-84.2-58.61-137.03-58.61-105.67,0-190.7,86.68-190.7,194.83s85.03,195.65,190.7,195.65c52.83,0,100.72-19.81,137.03-58.61,5.79-5.78,12.38-5.78,18.17,0,5.78,5.78,5.78,12.38,0,18.16-40.46,42.93-95.76,66.87-155.2,66.87-119.71,0-217.12-99.89-217.12-222.07Z"/>
  <path class="cls-1" d="M3343.7,2012.85v-408.64c0-9.09,4.12-13.21,13.21-13.21s13.21,4.13,13.21,13.21v408.64c0,9.08-4.12,13.21-13.21,13.21s-13.21-4.13-13.21-13.21Z"/>
  <path class="cls-1" d="M3476.6,2026.05c-9.09,0-13.21-4.13-13.21-13.21v-408.64c0-9.09,4.12-13.21,13.21-13.21h102.37c119.7,0,217.11,97.42,217.11,217.12s-97.42,217.94-217.11,217.94h-102.37ZM3489.81,1999.63h89.16c105.67,0,190.69-85.03,190.69-191.52s-85.02-190.7-190.69-190.7h-89.16v382.23Z"/>
  <path class="cls-1" d="M4162.64,1740.42v272.43c0,9.08-4.12,13.21-13.21,13.21s-13.21-4.13-13.21-13.21v-123.01h-214.65c-9.07,0-13.21-4.13-13.21-13.21s4.13-13.21,13.21-13.21h214.65v-123.01c0-67.7-55.32-123.01-123.01-123.01s-123.01,55.31-123.01,123.01v272.43c0,9.08-4.12,13.21-13.22,13.21s-13.2-4.13-13.2-13.21v-272.43c0-82.56,66.86-149.42,149.42-149.42s149.42,66.87,149.42,149.42Z"/>
  <path class="cls-1" d="M4246.87,2026.05c-9.09,0-13.21-4.13-13.21-13.21v-408.64c0-9.09,4.12-13.21,13.21-13.21h102.37c119.7,0,217.11,97.42,217.11,217.12s-97.42,217.94-217.11,217.94h-102.37ZM4260.08,1999.63h89.16c105.67,0,190.7-85.03,190.7-191.52s-85.03-190.7-190.7-190.7h-89.16v382.23Z"/>
  <path class="cls-1" d="M4885.86,1999.63c6.6,0,13.21,5.78,13.21,13.21s-6.61,13.21-13.21,13.21h-238.58c-9.09,0-13.22-4.13-13.22-13.21v-408.64c0-9.09,4.13-13.21,13.22-13.21h238.58c6.6,0,13.21,5.78,13.21,13.21s-6.61,13.21-13.21,13.21h-225.38v178.32h184.92c7.43,0,13.22,5.78,13.22,12.38,0,9.08-4.13,13.21-13.22,13.21h-184.92v178.32h225.38Z"/>
  <path class="cls-1" d="M2337,189.95c-17.56,0-29.64,12.45-33.17,32.98-.88,5.1-5.28,8.87-10.46,8.87h0c-6.52,0-11.62-5.86-10.63-12.31,4.85-31.7,24.26-52.08,52.32-52.08,38.64,0,56.02,44.43,83.06,44.43,17.46,0,29.5-12.32,33.11-31.78.94-5.06,5.29-8.78,10.44-8.78h.02c6.54,0,11.67,5.89,10.62,12.35-4.96,30.56-24.32,50.76-52.25,50.76-38.64,0-56.02-44.43-83.06-44.43Z"/>
</svg>