<?xml version="1.0" encoding="utf-8"?>
<!-- Generator: Adobe Illustrator 28.2.0, SVG Export Plug-In . SVG Version: 6.00 Build 0)  -->
<svg version="1.1" id="Camada_1" xmlns="http://www.w3.org/2000/svg" xmlns:xlink="http://www.w3.org/1999/xlink" x="0px" y="0px"
	 viewBox="0 0 255.12 141.73" style="enable-background:new 0 0 255.12 141.73;" xml:space="preserve">
<style type="text/css">
	.st0{fill:#010202;}
	.st1{fill:#12100B;}
	.st2{fill:#FFFFFF;}
	.st3{clip-path:url(#SVGID_00000142859259522616381570000003677525419287126674_);}
</style>
<g>
	<g>
		<g>
			<path class="st2" d="M100.61,74.13L89.72,63.19c-0.42-0.43-0.49-1.09-0.15-1.59l7.13-10.65c0.26-0.46,0.18-0.81-0.24-1.08
				c-0.16-0.13-0.35-0.18-0.56-0.13c-0.21,0.05-0.38,0.16-0.51,0.33l-7.62,11.48c-0.3,0.53-0.49,1.19,0.18,2.06l11.59,11.59
				c0.16,0.16,0.34,0.24,0.54,0.24c0.19,0,0.38-0.08,0.54-0.24c0.16-0.16,0.24-0.35,0.24-0.54
				C100.85,74.47,100.77,74.29,100.61,74.13z M81.97,49.72c-0.53,0-0.79,0.26-0.79,0.79v24.15c0,0.51,0.26,0.78,0.79,0.78
				c0.51,0,0.78-0.26,0.78-0.78V50.51C82.75,49.99,82.49,49.72,81.97,49.72z"/>
		</g>
		<g>
			<g>
				<path class="st2" d="M116.36,52.18c-0.47-0.23-0.83-0.11-1.05,0.37l-10.51,21.75c-0.22,0.46-0.1,0.81,0.37,1.04
					c0.46,0.22,0.81,0.1,1.04-0.36l10.51-21.75C116.94,52.75,116.82,52.4,116.36,52.18z"/>
			</g>
			<g>
				<path class="st2" d="M118.51,53.23l10.51,21.75c0.22,0.46,0.58,0.59,1.04,0.36c0.47-0.23,0.6-0.58,0.37-1.04l-10.51-21.75
					c-0.23-0.47-0.58-0.6-1.05-0.37C118.4,52.4,118.28,52.75,118.51,53.23z"/>
			</g>
		</g>
		<g>
			<g>
				<path class="st2" d="M159.75,52.18c-0.47-0.23-0.83-0.11-1.05,0.37l-10.51,21.75c-0.22,0.46-0.1,0.81,0.37,1.04
					c0.46,0.22,0.81,0.1,1.04-0.36l10.51-21.75C160.34,52.75,160.22,52.4,159.75,52.18z"/>
			</g>
			<g>
				<path class="st2" d="M161.91,53.23l10.51,21.75c0.22,0.46,0.58,0.59,1.04,0.36c0.47-0.23,0.6-0.58,0.37-1.04l-10.51-21.75
					c-0.23-0.47-0.58-0.6-1.05-0.37C161.8,52.4,161.68,52.75,161.91,53.23z"/>
			</g>
		</g>
		<g>
			<g>
				<path class="st2" d="M142.37,64.5c-0.52-0.69-1.12-1.29-1.81-1.81c-0.71-0.53-1.41-1.04-2.12-1.54
					c-0.72-0.48-1.36-0.92-1.89-1.36c-0.54-0.43-0.98-0.87-1.33-1.33c-0.35-0.46-0.58-0.96-0.7-1.49c-0.13-0.52-0.1-1.15,0.08-1.85
					c0.39-1.53,1.17-2.57,2.31-3.11c1.12-0.55,2.43-0.63,3.93-0.22c0.22,0.04,0.41,0,0.59-0.11c0.17-0.11,0.31-0.27,0.38-0.46
					c0.04-0.22,0-0.43-0.11-0.6c-0.11-0.17-0.27-0.29-0.46-0.37c-1.93-0.42-3.6-0.29-5.01,0.39c-1.58,0.75-2.62,2.12-3.12,4.15
					c-0.23,0.99-0.24,1.87-0.05,2.63c0.19,0.77,0.52,1.44,0.99,2.05c0.46,0.6,1,1.14,1.65,1.59c0.63,0.47,1.26,0.93,1.88,1.36
					c0.68,0.47,1.36,0.95,1.99,1.43c0.63,0.48,1.16,1.01,1.58,1.58c0.41,0.57,0.7,1.2,0.85,1.92c0.15,0.71,0.11,1.54-0.12,2.5
					c-0.36,1.45-1.16,2.53-2.42,3.27c-0.58,0.38-1.22,0.62-1.91,0.72c-0.7,0.09-1.37,0.06-2.05-0.11c-0.51-0.1-0.82,0.08-0.92,0.57
					c-0.08,0.23-0.05,0.42,0.06,0.59c0.11,0.17,0.27,0.28,0.47,0.33c0.42,0.12,0.82,0.19,1.2,0.22c1.4,0.1,2.73-0.24,3.99-1
					c0.77-0.48,1.43-1.06,1.95-1.78c0.51-0.72,0.89-1.52,1.12-2.41C143.89,68.02,143.55,66.11,142.37,64.5z"/>
			</g>
		</g>
	</g>
	<g>
		<path class="st2" d="M98.64,90.14h-0.53v-6.32h0.53v2.5c0.33-0.55,0.98-0.85,1.62-0.85c1.39,0,2.03,1.13,2.03,2.41
			c0,1.34-0.59,2.39-2.05,2.39c-0.58,0-1.27-0.32-1.58-0.92h-0.02V90.14z M100.18,89.79c0.89,0,1.55-0.64,1.55-1.78
			c0.04-1.14-0.47-2.06-1.55-2.06c-0.96,0-1.54,0.88-1.54,1.91C98.64,88.95,99.19,89.79,100.18,89.79z"/>
		<path class="st2" d="M107.5,90.14h-0.53v-4.55h0.53v0.85h0.02c0.29-0.73,0.72-0.98,1.48-0.98v0.57c-1.19-0.03-1.5,0.85-1.5,1.87
			V90.14z"/>
		<path class="st2" d="M115.48,87.49c0.19-0.02,0.52-0.07,0.69-0.15c0.18-0.08,0.19-0.32,0.19-0.47c0-0.54-0.32-0.92-1.13-0.92
			c-0.73,0-1.23,0.24-1.33,1.03h-0.54c0.08-1.07,0.88-1.5,1.87-1.5c0.92,0,1.65,0.36,1.65,1.42v2.48c0,0.41,0.11,0.51,0.55,0.35
			v0.41c-0.08,0.03-0.26,0.09-0.41,0.09c-0.09,0-0.16-0.01-0.24-0.03c-0.35-0.05-0.41-0.36-0.42-0.68c-0.44,0.49-1.04,0.76-1.7,0.76
			c-0.8,0-1.52-0.43-1.52-1.31c0-0.76,0.53-1.23,1.59-1.37L115.48,87.49z M116.36,87.76c-0.45,0.18-0.9,0.22-1.36,0.26
			c-0.8,0.06-1.28,0.35-1.28,0.97c0,0.55,0.48,0.82,0.98,0.82c0.83,0,1.66-0.4,1.66-1.33V87.76z"/>
		<path class="st2" d="M122.32,90.14h-0.53v-4.55h0.53v0.63c0.42-0.45,0.83-0.76,1.47-0.76c0.55,0,1.06,0.18,1.39,0.65
			c0.22,0.33,0.23,0.67,0.23,1.05v2.98h-0.53v-2.97c0-0.82-0.33-1.23-1.18-1.23c-0.65,0-1.1,0.42-1.26,0.89
			c-0.11,0.29-0.11,0.54-0.11,0.86V90.14z"/>
		<path class="st2" d="M133.71,83.82h0.53v6.32h-0.53v-0.8h-0.02c-0.31,0.6-1,0.92-1.58,0.92c-1.47,0-2.06-1.05-2.06-2.39
			c0-1.27,0.64-2.41,2.03-2.41c0.64,0,1.29,0.3,1.62,0.85V83.82z M132.18,85.95c-1.09,0-1.6,0.92-1.55,2.06
			c0.01,1.14,0.67,1.78,1.55,1.78c0.99,0,1.54-0.84,1.54-1.94C133.71,86.83,133.13,85.95,132.18,85.95z"/>
		<path class="st2" d="M139.14,84.6v-0.78h0.58v0.78H139.14z M139.17,90.14v-4.55h0.53v4.55H139.17z"/>
		<path class="st2" d="M145.08,90.14h-0.53v-4.55h0.53v0.63c0.42-0.45,0.83-0.76,1.47-0.76c0.55,0,1.06,0.18,1.39,0.65
			c0.22,0.33,0.23,0.67,0.23,1.05v2.98h-0.53v-2.97c0-0.82-0.33-1.23-1.18-1.23c-0.65,0-1.1,0.42-1.26,0.89
			c-0.11,0.29-0.11,0.54-0.11,0.86V90.14z"/>
		<path class="st2" d="M156.48,85.59H157v4.11c0,1.22-0.4,2.3-2.14,2.3c-1.33,0-1.89-0.76-1.92-1.31h0.56
			c0.16,0.69,0.74,0.83,1.36,0.83c1.44,0,1.63-1.07,1.61-2.12c-0.33,0.55-0.98,0.85-1.62,0.85c-1.39,0-2.03-1.13-2.03-2.41
			c0-1.34,0.59-2.39,2.06-2.39c0.58,0,1.27,0.33,1.58,0.92h0.02V85.59z M154.94,85.95c-0.89,0-1.55,0.64-1.55,1.78
			c-0.04,1.14,0.47,2.06,1.55,2.06c0.96,0,1.54-0.88,1.54-1.91C156.48,86.79,155.93,85.95,154.94,85.95z"/>
	</g>
</g>
</svg>
