<?xml version="1.0" encoding="utf-8"?>
<!-- Generator: Adobe Illustrator 28.2.0, SVG Export Plug-In . SVG Version: 6.00 Build 0)  -->
<svg version="1.1" id="Camada_1" xmlns="http://www.w3.org/2000/svg" xmlns:xlink="http://www.w3.org/1999/xlink" x="0px" y="0px"
	 viewBox="0 0 92.8 42.3" style="enable-background:new 0 0 92.8 42.3;" xml:space="preserve">
<style type="text/css">
	.st0{fill:#3D393A;}
</style>
<g>
	<g>
		<g>
			<path class="st0" d="M19.4,24.4L8.5,13.5c-0.4-0.4-0.5-1.1-0.2-1.6l7.1-10.7c0.3-0.5,0.2-0.8-0.2-1.1C15.1,0,14.9,0,14.7,0
				s-0.4,0.2-0.5,0.3L6.6,11.8c-0.3,0.5-0.5,1.2,0.2,2.1l11.6,11.6c0.2,0.2,0.3,0.2,0.5,0.2c0.2,0,0.4-0.1,0.5-0.2
				c0.2-0.2,0.2-0.3,0.2-0.5C19.7,24.8,19.6,24.6,19.4,24.4z M0.8,0C0.3,0,0,0.3,0,0.8v24.2c0,0.5,0.3,0.8,0.8,0.8
				c0.5,0,0.8-0.3,0.8-0.8V0.8C1.6,0.3,1.3,0,0.8,0z"/>
		</g>
		<g>
			<g>
				<path class="st0" d="M35.2,2.5c-0.5-0.2-0.8-0.1-1.1,0.4L23.6,24.6c-0.2,0.5-0.1,0.8,0.4,1c0.5,0.2,0.8,0.1,1-0.4L35.5,3.5
					C35.8,3,35.6,2.7,35.2,2.5z"/>
			</g>
			<g>
				<path class="st0" d="M37.3,3.5l10.5,21.7c0.2,0.5,0.6,0.6,1,0.4c0.5-0.2,0.6-0.6,0.4-1L38.7,2.8c-0.2-0.5-0.6-0.6-1.1-0.4
					C37.2,2.7,37.1,3,37.3,3.5z"/>
			</g>
		</g>
		<g>
			<g>
				<path class="st0" d="M78.6,2.5c-0.5-0.2-0.8-0.1-1.1,0.4L67,24.6c-0.2,0.5-0.1,0.8,0.4,1c0.5,0.2,0.8,0.1,1-0.4L78.9,3.5
					C79.2,3,79,2.7,78.6,2.5z"/>
			</g>
			<g>
				<path class="st0" d="M80.7,3.5l10.5,21.7c0.2,0.5,0.6,0.6,1,0.4c0.5-0.2,0.6-0.6,0.4-1L82.1,2.8c-0.2-0.5-0.6-0.6-1.1-0.4
					C80.6,2.7,80.5,3,80.7,3.5z"/>
			</g>
		</g>
		<g>
			<g>
				<path class="st0" d="M61.2,14.8c-0.5-0.7-1.1-1.3-1.8-1.8c-0.7-0.5-1.4-1-2.1-1.5c-0.7-0.5-1.4-0.9-1.9-1.4
					c-0.5-0.4-1-0.9-1.3-1.3c-0.4-0.5-0.6-1-0.7-1.5c-0.1-0.5-0.1-1.2,0.1-1.8c0.4-1.5,1.2-2.6,2.3-3.1c1.1-0.5,2.4-0.6,3.9-0.2
					c0.2,0,0.4,0,0.6-0.1c0.2-0.1,0.3-0.3,0.4-0.5c0-0.2,0-0.4-0.1-0.6s-0.3-0.3-0.5-0.4c-1.9-0.4-3.6-0.3-5,0.4
					c-1.6,0.8-2.6,2.1-3.1,4.2c-0.2,1-0.2,1.9-0.1,2.6c0.2,0.8,0.5,1.4,1,2c0.5,0.6,1,1.1,1.6,1.6c0.6,0.5,1.3,0.9,1.9,1.4
					c0.7,0.5,1.4,1,2,1.4c0.6,0.5,1.2,1,1.6,1.6c0.4,0.6,0.7,1.2,0.9,1.9c0.1,0.7,0.1,1.5-0.1,2.5c-0.4,1.4-1.2,2.5-2.4,3.3
					c-0.6,0.4-1.2,0.6-1.9,0.7c-0.7,0.1-1.4,0.1-2.1-0.1c-0.5-0.1-0.8,0.1-0.9,0.6c-0.1,0.2-0.1,0.4,0.1,0.6s0.3,0.3,0.5,0.3
					c0.4,0.1,0.8,0.2,1.2,0.2c1.4,0.1,2.7-0.2,4-1c0.8-0.5,1.4-1.1,1.9-1.8c0.5-0.7,0.9-1.5,1.1-2.4C62.7,18.3,62.4,16.4,61.2,14.8z
					"/>
			</g>
		</g>
	</g>
	<g>
		<path class="st0" d="M17.5,40.4h-0.5v-6.3h0.5v2.5c0.3-0.6,1-0.8,1.6-0.8c1.4,0,2,1.1,2,2.4c0,1.3-0.6,2.4-2.1,2.4
			c-0.6,0-1.3-0.3-1.6-0.9h0V40.4z M19,40.1c0.9,0,1.6-0.6,1.6-1.8c0-1.1-0.5-2.1-1.6-2.1c-1,0-1.5,0.9-1.5,1.9
			C17.5,39.2,18,40.1,19,40.1z"/>
		<path class="st0" d="M26.3,40.4h-0.5v-4.6h0.5v0.8h0c0.3-0.7,0.7-1,1.5-1v0.6c-1.2,0-1.5,0.8-1.5,1.9V40.4z"/>
		<path class="st0" d="M34.3,37.8c0.2,0,0.5-0.1,0.7-0.2c0.2-0.1,0.2-0.3,0.2-0.5c0-0.5-0.3-0.9-1.1-0.9c-0.7,0-1.2,0.2-1.3,1h-0.5
			c0.1-1.1,0.9-1.5,1.9-1.5c0.9,0,1.7,0.4,1.7,1.4v2.5c0,0.4,0.1,0.5,0.6,0.3v0.4c-0.1,0-0.3,0.1-0.4,0.1c-0.1,0-0.2,0-0.2,0
			c-0.3-0.1-0.4-0.4-0.4-0.7c-0.4,0.5-1,0.8-1.7,0.8c-0.8,0-1.5-0.4-1.5-1.3c0-0.8,0.5-1.2,1.6-1.4L34.3,37.8z M35.2,38
			c-0.4,0.2-0.9,0.2-1.4,0.3c-0.8,0.1-1.3,0.3-1.3,1c0,0.6,0.5,0.8,1,0.8c0.8,0,1.7-0.4,1.7-1.3C35.2,38.8,35.2,38,35.2,38z"/>
		<path class="st0" d="M41.1,40.4h-0.5v-4.6h0.5v0.6c0.4-0.4,0.8-0.8,1.5-0.8c0.6,0,1.1,0.2,1.4,0.7c0.2,0.3,0.2,0.7,0.2,1.1v3h-0.5
			v-3c0-0.8-0.3-1.2-1.2-1.2c-0.7,0-1.1,0.4-1.3,0.9c-0.1,0.3-0.1,0.5-0.1,0.9L41.1,40.4L41.1,40.4z"/>
		<path class="st0" d="M52.5,34.1h0.5v6.3h-0.5v-0.8h0c-0.3,0.6-1,0.9-1.6,0.9c-1.5,0-2.1-1.1-2.1-2.4c0-1.3,0.6-2.4,2-2.4
			c0.6,0,1.3,0.3,1.6,0.8L52.5,34.1L52.5,34.1z M51,36.2c-1.1,0-1.6,0.9-1.6,2.1c0,1.1,0.7,1.8,1.6,1.8c1,0,1.5-0.8,1.5-1.9
			C52.5,37.1,52,36.2,51,36.2z"/>
		<path class="st0" d="M58,34.9v-0.8h0.6v0.8H58z M58,40.4v-4.6h0.5v4.6H58z"/>
		<path class="st0" d="M63.9,40.4h-0.5v-4.6h0.5v0.6c0.4-0.4,0.8-0.8,1.5-0.8c0.6,0,1.1,0.2,1.4,0.7c0.2,0.3,0.2,0.7,0.2,1.1v3h-0.5
			v-3c0-0.8-0.3-1.2-1.2-1.2c-0.6,0-1.1,0.4-1.3,0.9c-0.1,0.3-0.1,0.5-0.1,0.9L63.9,40.4L63.9,40.4z"/>
		<path class="st0" d="M75.3,35.9h0.5V40c0,1.2-0.4,2.3-2.1,2.3c-1.3,0-1.9-0.8-1.9-1.3h0.6c0.2,0.7,0.7,0.8,1.4,0.8
			c1.4,0,1.6-1.1,1.6-2.1c-0.3,0.6-1,0.8-1.6,0.8c-1.4,0-2-1.1-2-2.4c0-1.3,0.6-2.4,2.1-2.4c0.6,0,1.3,0.3,1.6,0.9h0L75.3,35.9
			L75.3,35.9z M73.8,36.2c-0.9,0-1.6,0.6-1.6,1.8c0,1.1,0.5,2.1,1.6,2.1c1,0,1.5-0.9,1.5-1.9C75.3,37.1,74.7,36.2,73.8,36.2z"/>
	</g>
</g>
</svg>
